solid Created by Gmsh
facet normal 0 0 1
  outer loop
    vertex -0.00858158 -0.00490277 0.15
    vertex -0.0379974 0.0245026 0.15
    vertex -0.0419643 -0.0205357 0.15
  endloop
endfacet
facet normal 0 0 1
  outer loop
    vertex 0.00258192 0.0865579 0.15
    vertex -0.0205311 0.0578336 0.15
    vertex 0.0199813 0.0433655 0.15
  endloop
endfacet
facet normal -0 0 1
  outer loop
    vertex 0.0199813 0.0433655 0.15
    vertex 0.0512401 0.0185351 0.15
    vertex 0.0565184 0.0535254 0.15
  endloop
endfacet
facet normal -0 0 1
  outer loop
    vertex -0.0595139 0.0622852 0.15
    vertex -0.0205311 0.0578336 0.15
    vertex -0.0405392 0.100516 0.15
  endloop
endfacet
facet normal 0 0 1
  outer loop
    vertex -0.0405392 0.100516 0.15
    vertex -0.0205311 0.0578336 0.15
    vertex 0.00258192 0.0865579 0.15
  endloop
endfacet
facet normal 0 0 1
  outer loop
    vertex 0.0390806 -0.0994184 0.15
    vertex 0.0243649 -0.0559353 0.15
    vertex -0.00181058 -0.0869722 0.15
  endloop
endfacet
facet normal 0 0 1
  outer loop
    vertex 0.056331 -0.0629323 0.15
    vertex 0.0243649 -0.0559353 0.15
    vertex 0.0390806 -0.0994184 0.15
  endloop
endfacet
facet normal -0 0 1
  outer loop
    vertex -0.0419643 -0.0205357 0.15
    vertex -0.00547112 -0.0419643 0.15
    vertex -0.00858158 -0.00490277 0.15
  endloop
endfacet
facet normal -0 0 1
  outer loop
    vertex -0.0610709 -0.0593341 0.15
    vertex -0.0288991 -0.0663575 0.15
    vertex -0.0419643 -0.0205357 0.15
  endloop
endfacet
facet normal 0 0 1
  outer loop
    vertex -0.0205311 0.0578336 0.15
    vertex -0.00402348 0.0245703 0.15
    vertex 0.0199813 0.0433655 0.15
  endloop
endfacet
facet normal 0 0 1
  outer loop
    vertex 0.0390806 -0.0994184 0.15
    vertex 0.0699125 -0.0896031 0.15
    vertex 0.056331 -0.0629323 0.15
  endloop
endfacet
facet normal 3.68977e-16 5.37198e-16 1
  outer loop
    vertex 0.0375 -0.15 0.15
    vertex 0.0686744 -0.119745 0.15
    vertex 0.0390806 -0.0994184 0.15
  endloop
endfacet
facet normal -5.98036e-16 2.5958e-16 1
  outer loop
    vertex 0.15 0.0375 0.15
    vertex 0.118141 0.0710258 0.15
    vertex 0.104594 0.0398152 0.15
  endloop
endfacet
facet normal -3.19169e-16 -5.41296e-16 1
  outer loop
    vertex -0.0375 0.15 0.15
    vertex -0.0709928 0.118473 0.15
    vertex -0.0405392 0.100516 0.15
  endloop
endfacet
facet normal 5.96329e-16 -2.57112e-16 1
  outer loop
    vertex -0.15 -0.0375 0.15
    vertex -0.118061 -0.0713732 0.15
    vertex -0.104568 -0.0400788 0.15
  endloop
endfacet
facet normal 5.70024e-16 3.458e-16 1
  outer loop
    vertex -0.103899 0.0417704 0.15
    vertex -0.120492 0.0691227 0.15
    vertex -0.15 0.0375 0.15
  endloop
endfacet
facet normal -3.34678e-16 5.85777e-16 1
  outer loop
    vertex -0.0406846 -0.104437 0.15
    vertex -0.0689418 -0.120581 0.15
    vertex -0.0375 -0.15 0.15
  endloop
endfacet
facet normal -5.71927e-16 -3.2526e-16 1
  outer loop
    vertex 0.103899 -0.0417704 0.15
    vertex 0.120188 -0.0704133 0.15
    vertex 0.15 -0.0375 0.15
  endloop
endfacet
facet normal 3.2526e-16 -5.71927e-16 1
  outer loop
    vertex 0.0417704 0.103899 0.15
    vertex 0.0704133 0.120188 0.15
    vertex 0.0375 0.15 0.15
  endloop
endfacet
facet normal 0 0 1
  outer loop
    vertex -0.0419643 -0.0205357 0.15
    vertex -0.0288991 -0.0663575 0.15
    vertex -0.00547112 -0.0419643 0.15
  endloop
endfacet
facet normal 0 -0 1
  outer loop
    vertex 0.103899 -0.0417704 0.15
    vertex 0.123979 -0.0175917 0.15
    vertex 0.086106 -0.00120608 0.15
  endloop
endfacet
facet normal 0 0 1
  outer loop
    vertex 0.0417704 0.103899 0.15
    vertex 0.0169098 0.12354 0.15
    vertex 0.00258192 0.0865579 0.15
  endloop
endfacet
facet normal -0 0 1
  outer loop
    vertex -0.0406846 -0.104437 0.15
    vertex -0.0166697 -0.123896 0.15
    vertex -0.00181058 -0.0869722 0.15
  endloop
endfacet
facet normal 0 0 1
  outer loop
    vertex -0.103899 0.0417704 0.15
    vertex -0.123934 0.0166917 0.15
    vertex -0.0884526 0.000884988 0.15
  endloop
endfacet
facet normal 0 0 1
  outer loop
    vertex 0.0434288 -0.0210783 0.15
    vertex 0.0243649 -0.0559353 0.15
    vertex 0.056331 -0.0629323 0.15
  endloop
endfacet
facet normal -4.59131e-16 5.63076e-16 1
  outer loop
    vertex 0.0390806 -0.0994184 0.15
    vertex 0.0110211 -0.122298 0.15
    vertex 0.0375 -0.15 0.15
  endloop
endfacet
facet normal 6.32062e-16 3.72408e-16 1
  outer loop
    vertex -0.104568 -0.0400788 0.15
    vertex -0.121721 -0.0109656 0.15
    vertex -0.15 -0.0375 0.15
  endloop
endfacet
facet normal -6.28297e-16 -3.33922e-16 1
  outer loop
    vertex 0.104594 0.0398152 0.15
    vertex 0.120125 0.0105914 0.15
    vertex 0.15 0.0375 0.15
  endloop
endfacet
facet normal 3.74275e-16 -5.83886e-16 1
  outer loop
    vertex -0.0405392 0.100516 0.15
    vertex -0.0105249 0.119755 0.15
    vertex -0.0375 0.15 0.15
  endloop
endfacet
facet normal 0 0 1
  outer loop
    vertex 0.0512401 0.0185351 0.15
    vertex 0.0743944 0.0345511 0.15
    vertex 0.0565184 0.0535254 0.15
  endloop
endfacet
facet normal 0 0 1
  outer loop
    vertex 0.086106 -0.00120608 0.15
    vertex 0.0512401 0.0185351 0.15
    vertex 0.0434288 -0.0210783 0.15
  endloop
endfacet
facet normal 0 9.17388e-16 1
  outer loop
    vertex 0.075 -0.15 0.15
    vertex 0.0686744 -0.119745 0.15
    vertex 0.0375 -0.15 0.15
  endloop
endfacet
facet normal -8.71194e-16 0 1
  outer loop
    vertex 0.15 0.075 0.15
    vertex 0.118141 0.0710258 0.15
    vertex 0.15 0.0375 0.15
  endloop
endfacet
facet normal 0 -8.80361e-16 1
  outer loop
    vertex -0.075 0.15 0.15
    vertex -0.0709928 0.118473 0.15
    vertex -0.0375 0.15 0.15
  endloop
endfacet
facet normal 8.69008e-16 -0 1
  outer loop
    vertex -0.15 -0.075 0.15
    vertex -0.118061 -0.0713732 0.15
    vertex -0.15 -0.0375 0.15
  endloop
endfacet
facet normal 9.40603e-16 -0 1
  outer loop
    vertex -0.15 0.0375 0.15
    vertex -0.120492 0.0691227 0.15
    vertex -0.15 0.075 0.15
  endloop
endfacet
facet normal 0 9.43471e-16 1
  outer loop
    vertex -0.0375 -0.15 0.15
    vertex -0.0689418 -0.120581 0.15
    vertex -0.075 -0.15 0.15
  endloop
endfacet
facet normal -9.31025e-16 0 1
  outer loop
    vertex 0.15 -0.0375 0.15
    vertex 0.120188 -0.0704133 0.15
    vertex 0.15 -0.075 0.15
  endloop
endfacet
facet normal 0 -9.31025e-16 1
  outer loop
    vertex 0.0375 0.15 0.15
    vertex 0.0704133 0.120188 0.15
    vertex 0.075 0.15 0.15
  endloop
endfacet
facet normal 0 0 1
  outer loop
    vertex -0.0379974 0.0245026 0.15
    vertex -0.0629296 0.00130626 0.15
    vertex -0.0419643 -0.0205357 0.15
  endloop
endfacet
facet normal 0 0 1
  outer loop
    vertex -0.00181058 -0.0869722 0.15
    vertex -0.0288991 -0.0663575 0.15
    vertex -0.0406846 -0.104437 0.15
  endloop
endfacet
facet normal 5.23246e-16 6.45741e-16 1
  outer loop
    vertex -0.0375 -0.15 0.15
    vertex -0.0166697 -0.123896 0.15
    vertex -0.0406846 -0.104437 0.15
  endloop
endfacet
facet normal -6.52232e-16 5.41687e-16 1
  outer loop
    vertex 0.15 -0.0375 0.15
    vertex 0.123979 -0.0175917 0.15
    vertex 0.103899 -0.0417704 0.15
  endloop
endfacet
facet normal -5.13211e-16 -6.49595e-16 1
  outer loop
    vertex 0.0375 0.15 0.15
    vertex 0.0169098 0.12354 0.15
    vertex 0.0417704 0.103899 0.15
  endloop
endfacet
facet normal 6.50169e-16 -5.1941e-16 1
  outer loop
    vertex -0.15 0.0375 0.15
    vertex -0.123934 0.0166917 0.15
    vertex -0.103899 0.0417704 0.15
  endloop
endfacet
facet normal 0 0 1
  outer loop
    vertex 0.0565184 0.0535254 0.15
    vertex 0.0333475 0.0734624 0.15
    vertex 0.0199813 0.0433655 0.15
  endloop
endfacet
facet normal -0 0 1
  outer loop
    vertex 0.0434288 -0.0210783 0.15
    vertex 0.0737316 -0.0332486 0.15
    vertex 0.086106 -0.00120608 0.15
  endloop
endfacet
facet normal 0 0 1
  outer loop
    vertex -0.0419643 -0.0205357 0.15
    vertex -0.0735317 -0.031449 0.15
    vertex -0.0610709 -0.0593341 0.15
  endloop
endfacet
facet normal 0 -0 1
  outer loop
    vertex 0.0199813 0.0433655 0.15
    vertex 0.0333475 0.0734624 0.15
    vertex 0.00258192 0.0865579 0.15
  endloop
endfacet
facet normal 0 -0 1
  outer loop
    vertex 0.056331 -0.0629323 0.15
    vertex 0.0737316 -0.0332486 0.15
    vertex 0.0434288 -0.0210783 0.15
  endloop
endfacet
facet normal 0 0 1
  outer loop
    vertex -0.0884526 0.000884988 0.15
    vertex -0.121721 -0.0109656 0.15
    vertex -0.104568 -0.0400788 0.15
  endloop
endfacet
facet normal 0 0 1
  outer loop
    vertex 0.086106 -0.00120608 0.15
    vertex 0.120125 0.0105914 0.15
    vertex 0.104594 0.0398152 0.15
  endloop
endfacet
facet normal 0 0 1
  outer loop
    vertex 0.00258192 0.0865579 0.15
    vertex -0.0105249 0.119755 0.15
    vertex -0.0405392 0.100516 0.15
  endloop
endfacet
facet normal 0 0 1
  outer loop
    vertex -0.00181058 -0.0869722 0.15
    vertex 0.0110211 -0.122298 0.15
    vertex 0.0390806 -0.0994184 0.15
  endloop
endfacet
facet normal 0 -0 1
  outer loop
    vertex -0.0884526 0.000884988 0.15
    vertex -0.0727017 0.0331285 0.15
    vertex -0.103899 0.0417704 0.15
  endloop
endfacet
facet normal 0 -0 1
  outer loop
    vertex -0.0379974 0.0245026 0.15
    vertex -0.0205311 0.0578336 0.15
    vertex -0.0595139 0.0622852 0.15
  endloop
endfacet
facet normal 0 0 1
  outer loop
    vertex -0.0405392 0.100516 0.15
    vertex -0.0721446 0.0892313 0.15
    vertex -0.0595139 0.0622852 0.15
  endloop
endfacet
facet normal 0 0 1
  outer loop
    vertex 0.104594 0.0398152 0.15
    vertex 0.0743944 0.0345511 0.15
    vertex 0.086106 -0.00120608 0.15
  endloop
endfacet
facet normal 0 0 1
  outer loop
    vertex -0.104568 -0.0400788 0.15
    vertex -0.0735317 -0.031449 0.15
    vertex -0.0884526 0.000884988 0.15
  endloop
endfacet
facet normal -0 0 1
  outer loop
    vertex 0.00258192 0.0865579 0.15
    vertex 0.0333475 0.0734624 0.15
    vertex 0.0417704 0.103899 0.15
  endloop
endfacet
facet normal 0 0 1
  outer loop
    vertex 0.086106 -0.00120608 0.15
    vertex 0.0737316 -0.0332486 0.15
    vertex 0.103899 -0.0417704 0.15
  endloop
endfacet
facet normal -0 0 1
  outer loop
    vertex -0.00402348 0.0245703 0.15
    vertex 0.019446 0.00620725 0.15
    vertex 0.0199813 0.0433655 0.15
  endloop
endfacet
facet normal -0 0 1
  outer loop
    vertex 0.086106 -0.00120608 0.15
    vertex 0.123979 -0.0175917 0.15
    vertex 0.120125 0.0105914 0.15
  endloop
endfacet
facet normal 0 -0 1
  outer loop
    vertex 0.00258192 0.0865579 0.15
    vertex 0.0169098 0.12354 0.15
    vertex -0.0105249 0.119755 0.15
  endloop
endfacet
facet normal 0 0 1
  outer loop
    vertex -0.00181058 -0.0869722 0.15
    vertex -0.0166697 -0.123896 0.15
    vertex 0.0110211 -0.122298 0.15
  endloop
endfacet
facet normal 0 0 1
  outer loop
    vertex -0.0884526 0.000884988 0.15
    vertex -0.123934 0.0166917 0.15
    vertex -0.121721 -0.0109656 0.15
  endloop
endfacet
facet normal 0 -0 1
  outer loop
    vertex -0.00858158 -0.00490277 0.15
    vertex -0.00402348 0.0245703 0.15
    vertex -0.0379974 0.0245026 0.15
  endloop
endfacet
facet normal 0 0 1
  outer loop
    vertex 0.0737316 -0.0332486 0.15
    vertex 0.0865054 -0.0663403 0.15
    vertex 0.103899 -0.0417704 0.15
  endloop
endfacet
facet normal 0 0 1
  outer loop
    vertex -0.0595139 0.0622852 0.15
    vertex -0.0727017 0.0331285 0.15
    vertex -0.0379974 0.0245026 0.15
  endloop
endfacet
facet normal -0 0 1
  outer loop
    vertex 0.056331 -0.0629323 0.15
    vertex 0.0865054 -0.0663403 0.15
    vertex 0.0737316 -0.0332486 0.15
  endloop
endfacet
facet normal 0 0 1
  outer loop
    vertex -0.00858158 -0.00490277 0.15
    vertex 0.019446 0.00620725 0.15
    vertex -0.00402348 0.0245703 0.15
  endloop
endfacet
facet normal 0 0 1
  outer loop
    vertex 0.0333475 0.0734624 0.15
    vertex 0.0652878 0.0859929 0.15
    vertex 0.0417704 0.103899 0.15
  endloop
endfacet
facet normal -0 0 1
  outer loop
    vertex -0.104568 -0.0400788 0.15
    vertex -0.087019 -0.0653187 0.15
    vertex -0.0735317 -0.031449 0.15
  endloop
endfacet
facet normal 0 1.00193e-15 1
  outer loop
    vertex 0.0375 -0.15 0.15
    vertex 0.0110211 -0.122298 0.15
    vertex -2.498e-16 -0.15 0.15
  endloop
endfacet
facet normal -9.29066e-16 0 1
  outer loop
    vertex 0.15 0.0375 0.15
    vertex 0.120125 0.0105914 0.15
    vertex 0.15 -2.498e-16 0.15
  endloop
endfacet
facet normal 0 -9.177e-16 1
  outer loop
    vertex -0.0375 0.15 0.15
    vertex -0.0105249 0.119755 0.15
    vertex 2.498e-16 0.15 0.15
  endloop
endfacet
facet normal 9.81498e-16 -0 1
  outer loop
    vertex -0.15 -0.0375 0.15
    vertex -0.121721 -0.0109656 0.15
    vertex -0.15 2.498e-16 0.15
  endloop
endfacet
facet normal 0 0 1
  outer loop
    vertex -0.0288991 -0.0663575 0.15
    vertex -0.0647351 -0.0871241 0.15
    vertex -0.0406846 -0.104437 0.15
  endloop
endfacet
facet normal 0 -0 1
  outer loop
    vertex 0.0565184 0.0535254 0.15
    vertex 0.0652878 0.0859929 0.15
    vertex 0.0333475 0.0734624 0.15
  endloop
endfacet
facet normal 0 0 1
  outer loop
    vertex -0.0735317 -0.031449 0.15
    vertex -0.087019 -0.0653187 0.15
    vertex -0.0610709 -0.0593341 0.15
  endloop
endfacet
facet normal 0 -0 1
  outer loop
    vertex -0.00181058 -0.0869722 0.15
    vertex 0.0243649 -0.0559353 0.15
    vertex -0.00547112 -0.0419643 0.15
  endloop
endfacet
facet normal 0 0 1
  outer loop
    vertex -0.0610709 -0.0593341 0.15
    vertex -0.0647351 -0.0871241 0.15
    vertex -0.0288991 -0.0663575 0.15
  endloop
endfacet
facet normal 0 0 1
  outer loop
    vertex -0.00547112 -0.0419643 0.15
    vertex -0.0288991 -0.0663575 0.15
    vertex -0.00181058 -0.0869722 0.15
  endloop
endfacet
facet normal 0 -0 1
  outer loop
    vertex -0.00547112 -0.0419643 0.15
    vertex 0.014631 -0.0232463 0.15
    vertex -0.00858158 -0.00490277 0.15
  endloop
endfacet
facet normal 0 9.52669e-16 1
  outer loop
    vertex -0.1125 -0.15 0.15
    vertex -0.120865 -0.120865 0.15
    vertex -0.15 -0.15 0.15
  endloop
endfacet
facet normal -9.52669e-16 0 1
  outer loop
    vertex 0.15 -0.1125 0.15
    vertex 0.120865 -0.120865 0.15
    vertex 0.15 -0.15 0.15
  endloop
endfacet
facet normal 0 -9.52669e-16 1
  outer loop
    vertex 0.1125 0.15 0.15
    vertex 0.120865 0.120865 0.15
    vertex 0.15 0.15 0.15
  endloop
endfacet
facet normal 9.52669e-16 -0 1
  outer loop
    vertex -0.15 0.1125 0.15
    vertex -0.120865 0.120865 0.15
    vertex -0.15 0.15 0.15
  endloop
endfacet
facet normal 9.52669e-16 -0 1
  outer loop
    vertex -0.15 -0.15 0.15
    vertex -0.120865 -0.120865 0.15
    vertex -0.15 -0.1125 0.15
  endloop
endfacet
facet normal 0 9.52669e-16 1
  outer loop
    vertex 0.15 -0.15 0.15
    vertex 0.120865 -0.120865 0.15
    vertex 0.1125 -0.15 0.15
  endloop
endfacet
facet normal -9.52669e-16 0 1
  outer loop
    vertex 0.15 0.15 0.15
    vertex 0.120865 0.120865 0.15
    vertex 0.15 0.1125 0.15
  endloop
endfacet
facet normal 0 -9.52669e-16 1
  outer loop
    vertex -0.15 0.15 0.15
    vertex -0.120865 0.120865 0.15
    vertex -0.1125 0.15 0.15
  endloop
endfacet
facet normal 0 0 1
  outer loop
    vertex 0.0434288 -0.0210783 0.15
    vertex 0.014631 -0.0232463 0.15
    vertex 0.0243649 -0.0559353 0.15
  endloop
endfacet
facet normal 0 0 1
  outer loop
    vertex 0.0199813 0.0433655 0.15
    vertex 0.019446 0.00620725 0.15
    vertex 0.0512401 0.0185351 0.15
  endloop
endfacet
facet normal 0 0 1
  outer loop
    vertex -0.0727017 0.0331285 0.15
    vertex -0.0880551 0.0657515 0.15
    vertex -0.103899 0.0417704 0.15
  endloop
endfacet
facet normal 0 0 1
  outer loop
    vertex -0.0595139 0.0622852 0.15
    vertex -0.0880551 0.0657515 0.15
    vertex -0.0727017 0.0331285 0.15
  endloop
endfacet
facet normal 0 0 1
  outer loop
    vertex 0.086106 -0.00120608 0.15
    vertex 0.0743944 0.0345511 0.15
    vertex 0.0512401 0.0185351 0.15
  endloop
endfacet
facet normal 0 0 1
  outer loop
    vertex 0.0243649 -0.0559353 0.15
    vertex 0.014631 -0.0232463 0.15
    vertex -0.00547112 -0.0419643 0.15
  endloop
endfacet
facet normal 0 -0 1
  outer loop
    vertex -0.0735317 -0.031449 0.15
    vertex -0.0629296 0.00130626 0.15
    vertex -0.0884526 0.000884988 0.15
  endloop
endfacet
facet normal 0 0 1
  outer loop
    vertex -0.0379974 0.0245026 0.15
    vertex -0.00402348 0.0245703 0.15
    vertex -0.0205311 0.0578336 0.15
  endloop
endfacet
facet normal 0 0 1
  outer loop
    vertex -0.0419643 -0.0205357 0.15
    vertex -0.0629296 0.00130626 0.15
    vertex -0.0735317 -0.031449 0.15
  endloop
endfacet
facet normal 1.0648e-15 -0 1
  outer loop
    vertex -0.15 2.498e-16 0.15
    vertex -0.123934 0.0166917 0.15
    vertex -0.15 0.0375 0.15
  endloop
endfacet
facet normal 0 1.06328e-15 1
  outer loop
    vertex -2.498e-16 -0.15 0.15
    vertex -0.0166697 -0.123896 0.15
    vertex -0.0375 -0.15 0.15
  endloop
endfacet
facet normal -1.06668e-15 0 1
  outer loop
    vertex 0.15 -2.498e-16 0.15
    vertex 0.123979 -0.0175917 0.15
    vertex 0.15 -0.0375 0.15
  endloop
endfacet
facet normal 0 -1.04895e-15 1
  outer loop
    vertex 2.498e-16 0.15 0.15
    vertex 0.0169098 0.12354 0.15
    vertex 0.0375 0.15 0.15
  endloop
endfacet
facet normal 0 0 1
  outer loop
    vertex 0.0512401 0.0185351 0.15
    vertex 0.019446 0.00620725 0.15
    vertex 0.0434288 -0.0210783 0.15
  endloop
endfacet
facet normal 0 1.2638e-15 1
  outer loop
    vertex 0.1125 -0.15 0.15
    vertex 0.0952022 -0.128038 0.15
    vertex 0.075 -0.15 0.15
  endloop
endfacet
facet normal -1.2456e-15 0 1
  outer loop
    vertex 0.15 0.1125 0.15
    vertex 0.127717 0.0956725 0.15
    vertex 0.15 0.075 0.15
  endloop
endfacet
facet normal 0 -1.24252e-15 1
  outer loop
    vertex -0.1125 0.15 0.15
    vertex -0.0957876 0.127662 0.15
    vertex -0.075 0.15 0.15
  endloop
endfacet
facet normal 1.23795e-15 -0 1
  outer loop
    vertex -0.15 -0.1125 0.15
    vertex -0.127579 -0.0958636 0.15
    vertex -0.15 -0.075 0.15
  endloop
endfacet
facet normal 0 1.2735e-15 1
  outer loop
    vertex -0.075 -0.15 0.15
    vertex -0.0952557 -0.128205 0.15
    vertex -0.1125 -0.15 0.15
  endloop
endfacet
facet normal -1.2619e-15 0 1
  outer loop
    vertex 0.15 -0.075 0.15
    vertex 0.128005 -0.0956717 0.15
    vertex 0.15 -0.1125 0.15
  endloop
endfacet
facet normal 0 -1.2619e-15 1
  outer loop
    vertex 0.075 0.15 0.15
    vertex 0.0956717 0.128005 0.15
    vertex 0.1125 0.15 0.15
  endloop
endfacet
facet normal 1.27245e-15 -0 1
  outer loop
    vertex -0.15 0.075 0.15
    vertex -0.128187 0.0952919 0.15
    vertex -0.15 0.1125 0.15
  endloop
endfacet
facet normal -9.76404e-16 -1.33525e-16 1
  outer loop
    vertex 0.120125 0.0105914 0.15
    vertex 0.123979 -0.0175917 0.15
    vertex 0.15 -2.498e-16 0.15
  endloop
endfacet
facet normal 1.32973e-16 -9.63974e-16 1
  outer loop
    vertex -0.0105249 0.119755 0.15
    vertex 0.0169098 0.12354 0.15
    vertex 2.498e-16 0.15 0.15
  endloop
endfacet
facet normal 1.01292e-15 8.10284e-17 1
  outer loop
    vertex -0.121721 -0.0109656 0.15
    vertex -0.123934 0.0166917 0.15
    vertex -0.15 2.498e-16 0.15
  endloop
endfacet
facet normal -5.91933e-17 1.02548e-15 1
  outer loop
    vertex 0.0110211 -0.122298 0.15
    vertex -0.0166697 -0.123896 0.15
    vertex -2.498e-16 -0.15 0.15
  endloop
endfacet
facet normal 0 0 1
  outer loop
    vertex 0.103899 -0.0417704 0.15
    vertex 0.0865054 -0.0663403 0.15
    vertex 0.120188 -0.0704133 0.15
  endloop
endfacet
facet normal -0 0 1
  outer loop
    vertex 0.0417704 0.103899 0.15
    vertex 0.0652878 0.0859929 0.15
    vertex 0.0704133 0.120188 0.15
  endloop
endfacet
facet normal 0 0 1
  outer loop
    vertex -0.0709928 0.118473 0.15
    vertex -0.0721446 0.0892313 0.15
    vertex -0.0405392 0.100516 0.15
  endloop
endfacet
facet normal 0 0 1
  outer loop
    vertex -0.118061 -0.0713732 0.15
    vertex -0.087019 -0.0653187 0.15
    vertex -0.104568 -0.0400788 0.15
  endloop
endfacet
facet normal 0 -0 1
  outer loop
    vertex -0.0689418 -0.120581 0.15
    vertex -0.0647351 -0.0871241 0.15
    vertex -0.0989711 -0.0995796 0.15
  endloop
endfacet
facet normal 0 0 1
  outer loop
    vertex 0.0989711 -0.0995796 0.15
    vertex 0.0699125 -0.0896031 0.15
    vertex 0.0686744 -0.119745 0.15
  endloop
endfacet
facet normal 0 0 1
  outer loop
    vertex 0.0995796 0.0989711 0.15
    vertex 0.0864191 0.0639802 0.15
    vertex 0.118141 0.0710258 0.15
  endloop
endfacet
facet normal -0 0 1
  outer loop
    vertex -0.120492 0.0691227 0.15
    vertex -0.0880551 0.0657515 0.15
    vertex -0.0995796 0.0989711 0.15
  endloop
endfacet
facet normal 0 -0 1
  outer loop
    vertex 0.0743944 0.0345511 0.15
    vertex 0.0864191 0.0639802 0.15
    vertex 0.0565184 0.0535254 0.15
  endloop
endfacet
facet normal 0 0 1
  outer loop
    vertex 0.104594 0.0398152 0.15
    vertex 0.0864191 0.0639802 0.15
    vertex 0.0743944 0.0345511 0.15
  endloop
endfacet
facet normal 0 0 1
  outer loop
    vertex -0.0995796 0.0989711 0.15
    vertex -0.0880551 0.0657515 0.15
    vertex -0.0721446 0.0892313 0.15
  endloop
endfacet
facet normal 0 0 1
  outer loop
    vertex -0.0989711 -0.0995796 0.15
    vertex -0.0647351 -0.0871241 0.15
    vertex -0.087019 -0.0653187 0.15
  endloop
endfacet
facet normal 0 0 1
  outer loop
    vertex 0.0865054 -0.0663403 0.15
    vertex 0.0699125 -0.0896031 0.15
    vertex 0.0989711 -0.0995796 0.15
  endloop
endfacet
facet normal -0 0 1
  outer loop
    vertex 0.0652878 0.0859929 0.15
    vertex 0.0864191 0.0639802 0.15
    vertex 0.0995796 0.0989711 0.15
  endloop
endfacet
facet normal 0 0 1
  outer loop
    vertex -0.0727017 0.0331285 0.15
    vertex -0.0629296 0.00130626 0.15
    vertex -0.0379974 0.0245026 0.15
  endloop
endfacet
facet normal 0 0 1
  outer loop
    vertex -0.0884526 0.000884988 0.15
    vertex -0.0629296 0.00130626 0.15
    vertex -0.0727017 0.0331285 0.15
  endloop
endfacet
facet normal 0 0 1
  outer loop
    vertex -0.0995796 0.0989711 0.15
    vertex -0.128187 0.0952919 0.15
    vertex -0.120492 0.0691227 0.15
  endloop
endfacet
facet normal 0 0 1
  outer loop
    vertex -0.0989711 -0.0995796 0.15
    vertex -0.0952557 -0.128205 0.15
    vertex -0.0689418 -0.120581 0.15
  endloop
endfacet
facet normal 0 0 1
  outer loop
    vertex 0.0989711 -0.0995796 0.15
    vertex 0.128005 -0.0956717 0.15
    vertex 0.120188 -0.0704133 0.15
  endloop
endfacet
facet normal 0 0 1
  outer loop
    vertex 0.0995796 0.0989711 0.15
    vertex 0.0956717 0.128005 0.15
    vertex 0.0704133 0.120188 0.15
  endloop
endfacet
facet normal 0 0 1
  outer loop
    vertex -0.118061 -0.0713732 0.15
    vertex -0.127579 -0.0958636 0.15
    vertex -0.0989711 -0.0995796 0.15
  endloop
endfacet
facet normal -0 0 1
  outer loop
    vertex 0.0686744 -0.119745 0.15
    vertex 0.0952022 -0.128038 0.15
    vertex 0.0989711 -0.0995796 0.15
  endloop
endfacet
facet normal 0 -0 1
  outer loop
    vertex 0.118141 0.0710258 0.15
    vertex 0.127717 0.0956725 0.15
    vertex 0.0995796 0.0989711 0.15
  endloop
endfacet
facet normal 0 0 1
  outer loop
    vertex -0.0709928 0.118473 0.15
    vertex -0.0957876 0.127662 0.15
    vertex -0.0995796 0.0989711 0.15
  endloop
endfacet
facet normal 0 0 1
  outer loop
    vertex 0.120188 -0.0704133 0.15
    vertex 0.0865054 -0.0663403 0.15
    vertex 0.0989711 -0.0995796 0.15
  endloop
endfacet
facet normal 0 0 1
  outer loop
    vertex 0.0704133 0.120188 0.15
    vertex 0.0652878 0.0859929 0.15
    vertex 0.0995796 0.0989711 0.15
  endloop
endfacet
facet normal 0 -0 1
  outer loop
    vertex -0.0989711 -0.0995796 0.15
    vertex -0.087019 -0.0653187 0.15
    vertex -0.118061 -0.0713732 0.15
  endloop
endfacet
facet normal -0 0 1
  outer loop
    vertex -0.0995796 0.0989711 0.15
    vertex -0.0721446 0.0892313 0.15
    vertex -0.0709928 0.118473 0.15
  endloop
endfacet
facet normal 9.99123e-16 2.93815e-16 1
  outer loop
    vertex -0.120492 0.0691227 0.15
    vertex -0.128187 0.0952919 0.15
    vertex -0.15 0.075 0.15
  endloop
endfacet
facet normal 3.06846e-16 9.81542e-16 1
  outer loop
    vertex 0.075 -0.15 0.15
    vertex 0.0952022 -0.128038 0.15
    vertex 0.0686744 -0.119745 0.15
  endloop
endfacet
facet normal -9.15571e-16 3.55742e-16 1
  outer loop
    vertex 0.15 0.075 0.15
    vertex 0.127717 0.0956725 0.15
    vertex 0.118141 0.0710258 0.15
  endloop
endfacet
facet normal -3.42404e-16 -9.23882e-16 1
  outer loop
    vertex -0.075 0.15 0.15
    vertex -0.0957876 0.127662 0.15
    vertex -0.0709928 0.118473 0.15
  endloop
endfacet
facet normal 9.09133e-16 -3.53356e-16 1
  outer loop
    vertex -0.15 -0.075 0.15
    vertex -0.127579 -0.0958636 0.15
    vertex -0.118061 -0.0713732 0.15
  endloop
endfacet
facet normal -2.90694e-16 1.00333e-15 1
  outer loop
    vertex -0.0689418 -0.120581 0.15
    vertex -0.0952557 -0.128205 0.15
    vertex -0.075 -0.15 0.15
  endloop
endfacet
facet normal -9.77571e-16 -3.02532e-16 1
  outer loop
    vertex 0.120188 -0.0704133 0.15
    vertex 0.128005 -0.0956717 0.15
    vertex 0.15 -0.075 0.15
  endloop
endfacet
facet normal 3.02532e-16 -9.77571e-16 1
  outer loop
    vertex 0.0704133 0.120188 0.15
    vertex 0.0956717 0.128005 0.15
    vertex 0.075 0.15 0.15
  endloop
endfacet
facet normal 0 0 1
  outer loop
    vertex -0.0406846 -0.104437 0.15
    vertex -0.0647351 -0.0871241 0.15
    vertex -0.0689418 -0.120581 0.15
  endloop
endfacet
facet normal 0 -0 1
  outer loop
    vertex -0.103899 0.0417704 0.15
    vertex -0.0880551 0.0657515 0.15
    vertex -0.120492 0.0691227 0.15
  endloop
endfacet
facet normal 0 -0 1
  outer loop
    vertex 0.0686744 -0.119745 0.15
    vertex 0.0699125 -0.0896031 0.15
    vertex 0.0390806 -0.0994184 0.15
  endloop
endfacet
facet normal 0 0 1
  outer loop
    vertex 0.118141 0.0710258 0.15
    vertex 0.0864191 0.0639802 0.15
    vertex 0.104594 0.0398152 0.15
  endloop
endfacet
facet normal 0 0 1
  outer loop
    vertex -0.120865 0.120865 0.15
    vertex -0.128187 0.0952919 0.15
    vertex -0.0995796 0.0989711 0.15
  endloop
endfacet
facet normal -0 0 1
  outer loop
    vertex -0.120865 -0.120865 0.15
    vertex -0.0952557 -0.128205 0.15
    vertex -0.0989711 -0.0995796 0.15
  endloop
endfacet
facet normal 0 -0 1
  outer loop
    vertex 0.120865 -0.120865 0.15
    vertex 0.128005 -0.0956717 0.15
    vertex 0.0989711 -0.0995796 0.15
  endloop
endfacet
facet normal 0 0 1
  outer loop
    vertex 0.120865 0.120865 0.15
    vertex 0.0956717 0.128005 0.15
    vertex 0.0995796 0.0989711 0.15
  endloop
endfacet
facet normal 0 0 1
  outer loop
    vertex -0.0989711 -0.0995796 0.15
    vertex -0.127579 -0.0958636 0.15
    vertex -0.120865 -0.120865 0.15
  endloop
endfacet
facet normal 0 0 1
  outer loop
    vertex 0.0989711 -0.0995796 0.15
    vertex 0.0952022 -0.128038 0.15
    vertex 0.120865 -0.120865 0.15
  endloop
endfacet
facet normal -0 0 1
  outer loop
    vertex 0.0995796 0.0989711 0.15
    vertex 0.127717 0.0956725 0.15
    vertex 0.120865 0.120865 0.15
  endloop
endfacet
facet normal 0 -0 1
  outer loop
    vertex -0.0995796 0.0989711 0.15
    vertex -0.0957876 0.127662 0.15
    vertex -0.120865 0.120865 0.15
  endloop
endfacet
facet normal -0 0 1
  outer loop
    vertex -0.087019 -0.0653187 0.15
    vertex -0.0647351 -0.0871241 0.15
    vertex -0.0610709 -0.0593341 0.15
  endloop
endfacet
facet normal 0 0 1
  outer loop
    vertex -0.0721446 0.0892313 0.15
    vertex -0.0880551 0.0657515 0.15
    vertex -0.0595139 0.0622852 0.15
  endloop
endfacet
facet normal 0 0 1
  outer loop
    vertex 0.056331 -0.0629323 0.15
    vertex 0.0699125 -0.0896031 0.15
    vertex 0.0865054 -0.0663403 0.15
  endloop
endfacet
facet normal 0 0 1
  outer loop
    vertex 0.0565184 0.0535254 0.15
    vertex 0.0864191 0.0639802 0.15
    vertex 0.0652878 0.0859929 0.15
  endloop
endfacet
facet normal 2.97522e-16 1.0381e-15 1
  outer loop
    vertex -0.1125 -0.15 0.15
    vertex -0.0952557 -0.128205 0.15
    vertex -0.120865 -0.120865 0.15
  endloop
endfacet
facet normal -1.03705e-15 2.93883e-16 1
  outer loop
    vertex 0.15 -0.1125 0.15
    vertex 0.128005 -0.0956717 0.15
    vertex 0.120865 -0.120865 0.15
  endloop
endfacet
facet normal -2.93883e-16 -1.03705e-15 1
  outer loop
    vertex 0.1125 0.15 0.15
    vertex 0.0956717 0.128005 0.15
    vertex 0.120865 0.120865 0.15
  endloop
endfacet
facet normal 1.038e-15 -2.97187e-16 1
  outer loop
    vertex -0.15 0.1125 0.15
    vertex -0.128187 0.0952919 0.15
    vertex -0.120865 0.120865 0.15
  endloop
endfacet
facet normal -2.8949e-16 1.03579e-15 1
  outer loop
    vertex 0.120865 -0.120865 0.15
    vertex 0.0952022 -0.128038 0.15
    vertex 0.1125 -0.15 0.15
  endloop
endfacet
facet normal -1.03337e-15 -2.81043e-16 1
  outer loop
    vertex 0.120865 0.120865 0.15
    vertex 0.127717 0.0956725 0.15
    vertex 0.15 0.1125 0.15
  endloop
endfacet
facet normal 2.79969e-16 -1.03306e-15 1
  outer loop
    vertex -0.120865 0.120865 0.15
    vertex -0.0957876 0.127662 0.15
    vertex -0.1125 0.15 0.15
  endloop
endfacet
facet normal 1.03226e-15 2.77204e-16 1
  outer loop
    vertex -0.120865 -0.120865 0.15
    vertex -0.127579 -0.0958636 0.15
    vertex -0.15 -0.1125 0.15
  endloop
endfacet
facet normal 0 -0 1
  outer loop
    vertex 0.014631 -0.0232463 0.15
    vertex 0.019446 0.00620725 0.15
    vertex -0.00858158 -0.00490277 0.15
  endloop
endfacet
facet normal 0 0 1
  outer loop
    vertex 0.0434288 -0.0210783 0.15
    vertex 0.019446 0.00620725 0.15
    vertex 0.014631 -0.0232463 0.15
  endloop
endfacet
endsolid Created by Gmsh
